<svg xmlns="http://www.w3.org/2000/svg" width="394.8" height="92.7"><style>.st0{fill:url(#SVGID_1_);} .st1{fill:url(#SVGID_2_);} .st2{fill:url(#SVGID_3_);} .st3{fill:url(#SVGID_4_);} .st4{fill:url(#SVGID_5_);} .st5{fill:url(#SVGID_6_);} .st6{fill:url(#SVGID_7_);} .st7{fill:url(#SVGID_8_);} .st8{fill:url(#SVGID_9_);} .st9{fill:url(#SVGID_10_);} .st10{fill:url(#SVGID_11_);} .st11{fill:url(#SVGID_12_);} .st12{fill:url(#SVGID_13_);} .st13{fill:url(#SVGID_14_);} .st14{fill:url(#SVGID_15_);} .st15{fill:url(#SVGID_16_);} .st16{fill:url(#SVGID_17_);} .st17{fill:url(#SVGID_18_);}</style><linearGradient id="SVGID_1_" x1="11.64" x2="37.431" y1="42.805" y2="42.805" gradientUnits="userSpaceOnUse"><stop offset="0" stop-color="#193C19"/><stop offset=".79" stop-color="#65BF47"/></linearGradient><path d="M12.2 75.5c.1.2-.6.7-.5.9 10.9-15.6 19-26.9 21.8-35.7 4.6-14.7 3.9-17.8 4-17.9 0 0-5.9-10.3-12.3-13.5 0 0 3.5 11.1-.4 31.3-2 10.6-7.7 28.1-12.6 34.9z" class="st0"/><linearGradient id="SVGID_2_" x1="9.717" x2="53.184" y1="71.071" y2="71.071" gradientUnits="userSpaceOnUse" gradientTransform="rotate(2.922 465 89.64)"><stop offset="0" stop-color="#193C19"/><stop offset=".79" stop-color="#65BF47"/></linearGradient><path d="M55.3 37.1s-1.5-8.9-10.4-17.6c0 0-.4 19-12.9 36.3-5.7 7.8-16.3 16.1-22.3 21.8 14.5-9.9 40.7-24.7 45.6-40.5z" class="st1"/><linearGradient id="SVGID_3_" x1="13.511" x2="72.308" y1="62.728" y2="62.728" gradientUnits="userSpaceOnUse" gradientTransform="rotate(-.81 471.732 73.774)"><stop offset="0" stop-color="#193C19"/><stop offset=".79" stop-color="#65BF47"/></linearGradient><path d="M48 73.4C39.4 75 22.2 76 13.5 75.9c0 .2.1.3.1.5 1.6.2 2.7.2 4.5.3 13.1 1 37 1.3 49.3-2.3 0 0 4-5.2 4.6-13.3.1 0-1.8 8.2-24 12.3z" class="st2"/><linearGradient id="SVGID_4_" x1="15.327" x2="73.521" y1="5.647" y2="5.647" gradientUnits="userSpaceOnUse" gradientTransform="matrix(.9925 -.1216 .1216 .9926 -6.93 56.842)"><stop offset="0" stop-color="#193C19"/><stop offset=".79" stop-color="#65BF47"/></linearGradient><path d="M43.5 62.8c-7.5 4.8-19.3 9.8-32.6 13.5.1.2.2.3.2.5 16-3.7 38.5-6.5 54.3-20.2 0 0 1.7-9.4-1.2-19.3 0 0-1.9 13.6-20.7 25.5z" class="st3"/><g><linearGradient id="SVGID_5_" x1="35.123" x2="35.123" y1="116.369" y2="-50.187" gradientUnits="userSpaceOnUse"><stop offset="0" stop-color="#0D192B"/><stop offset=".034" stop-color="#0D1B2F"/><stop offset=".478" stop-color="#083662"/><stop offset=".814" stop-color="#054781"/><stop offset="1" stop-color="#044D8D"/></linearGradient><path d="M4 86.9c3 3.5 8 5.5 14.8 5.8h50.1l1.3-13.8-43.5-.1c-7-.7-11-5-10.9-12v-.3L24.1 0H8.7L.3 67.8C-.6 76.5.6 82.9 4 86.9z" class="st4"/><linearGradient id="SVGID_6_" x1="119.633" x2="119.633" y1="116.368" y2="-50.185" gradientUnits="userSpaceOnUse"><stop offset="0" stop-color="#0D192B"/><stop offset=".034" stop-color="#0D1B2F"/><stop offset=".478" stop-color="#083662"/><stop offset=".814" stop-color="#054781"/><stop offset="1" stop-color="#044D8D"/></linearGradient><path d="M155.9 33.4l1.1-10.8h-48.8c-14.9.8-23.2 12.3-25.4 35.2-1.4 14.2.3 24.1 4.9 29.5 2.6 3.1 6.3 4.7 11.2 5H150l1.2-12h-46c-2.2-.3-7.3-1.7-7.6-9.9l-.1-8.7 55.6.2 1.1-10.5-56.5-.1 3.5-12.2c1-2.7 3.7-6 11.2-5.7h43.5z" class="st5"/><linearGradient id="SVGID_7_" x1="201.705" x2="201.705" y1="116.368" y2="-50.186" gradientUnits="userSpaceOnUse"><stop offset="0" stop-color="#0D192B"/><stop offset=".034" stop-color="#0D1B2F"/><stop offset=".478" stop-color="#083662"/><stop offset=".814" stop-color="#054781"/><stop offset="1" stop-color="#044D8D"/></linearGradient><path d="M238 33.3l1.1-10.8-49-.1c-14.8.8-23.1 12.3-25.3 35.3-1.4 14.2.3 24.2 4.9 29.6 2.6 3.1 6.3 4.7 11.3 5h51.2l1.2-12.1-46.2-.1-.5-.1c-4.9-1.3-8-4.6-8.6-9.3v-.2c-.8-10.2.8-20.6 4.8-30.8l.4-.8c1.7-2.5 5-5.5 11.1-5.6H238z" class="st6"/><linearGradient id="SVGID_8_" x1="279.242" x2="279.242" y1="116.368" y2="-50.186" gradientUnits="userSpaceOnUse"><stop offset="0" stop-color="#0D192B"/><stop offset=".034" stop-color="#0D1B2F"/><stop offset=".478" stop-color="#083662"/><stop offset=".814" stop-color="#054781"/><stop offset="1" stop-color="#044D8D"/></linearGradient><path d="M312.3 72.7c.6-6.8-.4-12-3.1-15.5-2.6-3.4-7.5-5.3-14.7-5.8h-18c-3.7 0-7.8-.2-9.7-.5-1.3-.3-3.1-1.8-3.9-2.9-1-1.4-1.4-3.1-1.3-4.7.2-3.4 2.1-6.2 5.3-7.4 1.7-.6 3.7-1.1 5.5-1.2 6.2-.4 12.5 0 18.7 0h18.4c.2 0 3.9.1 3.9 0l1.2-12.1H273c-8.4.4-14.7 2.2-18.4 5.2-3.6 3-6.1 8.1-7.4 15.1-.6 6.6.5 11.5 3.5 15 2.9 3.4 8.3 5.1 16 5.1h17.1c4.6 0 7.9.2 10 .7 6.8 1.6 6.1 10.8 2.1 14.7-1 1-2.1 1.5-3.5 1.7-2.2.3-5.3.5-9.4.5h-37.8L244 92.5h42.6c8.9-.1 15.2-1.8 18.7-4.9 3.5-3 5.8-8.1 7-14.9z" class="st7"/><linearGradient id="SVGID_9_" x1="358.084" x2="358.084" y1="116.369" y2="-50.187" gradientUnits="userSpaceOnUse"><stop offset="0" stop-color="#0D192B"/><stop offset=".034" stop-color="#0D1B2F"/><stop offset=".478" stop-color="#083662"/><stop offset=".814" stop-color="#054781"/><stop offset="1" stop-color="#044D8D"/></linearGradient><path d="M325.5 88c2.7 2.8 6.8 4.2 12.5 4.2h49.9l7-69.8h-13.2l-5.6 55.7h-32.2c-4.5.3-6.9-1.5-8.1-2.9-1.8-2.1-2.3-5.1-1.7-8.8l4.7-44h-12.4l-4.9 49.5c-.5 7.4.9 12.9 4 16.1z" class="st8"/></g></svg>